<?xml version="1.0" encoding="UTF-8" standalone="no"?>
<svg
   xmlns:dc="http://purl.org/dc/elements/1.1/"
   xmlns:cc="http://creativecommons.org/ns#"
   xmlns:rdf="http://www.w3.org/1999/02/22-rdf-syntax-ns#"
   xmlns:svg="http://www.w3.org/2000/svg"
   xmlns="http://www.w3.org/2000/svg"
   width="512"
   height="512"
   viewBox="0 0 512 512"
   version="1.1"
   preserveAspectRatio="xMinYMin meet"
   id="svg2">
  <metadata
     id="metadata16">
    <rdf:RDF>
      <cc:Work
         rdf:about="">
        <dc:format>image/svg+xml</dc:format>
        <dc:type
           rdf:resource="http://purl.org/dc/dcmitype/StillImage" />
        <dc:title></dc:title>
      </cc:Work>
    </rdf:RDF>
  </metadata>
  <defs
     id="defs14" />
  <g
     id="g4"
     transform="matrix(1.7363281,0,0,1.7363281,33.750004,2.132831e-7)"
     style="fill:#000000">
    <path
       style="fill:#000000"
       d="m 128,4.6074241e-6 0,0 C 57.731882,4.6074241e-6 0.01163951,18.821816 0.01163951,42.662782 c 0,6.273941 15.05745349,95.363878 21.33139449,130.497928 C 23.852606,189.47297 65.260609,212.05915 128,212.05915 l 0,0 c 62.73939,0 102.89259,-22.58618 106.65697,-38.89844 C 240.9309,138.02666 255.98836,48.936723 255.98836,42.662782 254.73357,18.821816 198.26811,4.6074241e-6 128,4.6074241e-6 l 0,0 z M 128,183.19902 c -22.58618,0 -40.153211,-17.56703 -40.153211,-40.15321 0,-22.58618 17.567031,-40.1532 40.153211,-40.1532 22.58617,0 40.15321,17.56702 40.15321,40.1532 0,21.33139 -17.56704,40.15321 -40.15321,40.15321 l 0,0 z m 0,-127.988356 c -45.172366,0 -81.561214,-7.528727 -81.561214,-17.567026 0,-10.03831 36.388848,-17.567036 81.561214,-17.567036 45.17235,0 81.56121,7.528726 81.56121,17.567036 0,10.038299 -36.38886,17.567026 -81.56121,17.567026 l 0,0 z"
       id="path6" />
    <path
       style="fill:#000000"
       d="m 220.60818,207.03999 c -2.50959,0 -3.76437,1.25479 -3.76437,1.25479 0,0 -31.3697,25.09576 -87.83515,25.09576 -56.465449,0 -87.835153,-25.09576 -87.835153,-25.09576 0,0 -2.509572,-1.25479 -3.764358,-1.25479 -2.509583,0 -5.019155,1.25479 -5.019155,5.01916 l 0,1.25478 c 5.019155,26.35055 8.783513,45.17236 8.783513,47.68193 3.764369,18.82183 41.408003,33.87928 86.580363,33.87928 l 0,0 c 45.17236,0 82.816,-15.05745 86.58036,-33.87928 0,-2.50957 3.76436,-21.33138 8.78352,-47.68193 l 0,-1.25478 c 1.25478,-2.50959 0,-5.01916 -2.50957,-5.01916 l 0,0 z"
       id="path8" />
    <circle
       style="fill:#000000"
       cx="128"
       cy="141.79108"
       r="20.076605"
       id="circle10" />
  </g>
</svg>
