<?xml version="1.0" encoding="UTF-8"?>
<svg enable-background="new 0 0 400 400" version="1.1" viewBox="0 0 512 512" xml:space="preserve" xmlns="http://www.w3.org/2000/svg"><g stroke-width="3.552"><path id="a" d="m328.8 354.1c8.857-8.844 23.19-8.821 32.02 0.0516 8.829 8.873 8.806 23.23-0.0515 32.08l-39.33 39.27c-36.28 36.23-95.45 36.76-132.3 1.22-0.2132-0.2043-16.64-16.31-70.84-69.46-36.06-35.35-39.65-91.93-5.719-128.3l63.26-67.74c33.68-36.06 95.75-40 134.3-8.864l57.46 46.47c9.73 7.869 11.25 22.15 3.395 31.9s-22.11 11.27-31.84 3.401l-57.46-46.47c-20.14-16.28-55.36-14.05-72.74 4.558l-63.26 67.74c-16.52 17.69-14.71 46.18 4.327 64.84 39.8 39.03 70.47 69.1 70.51 69.14 19.18 18.48 50.2 18.2 69.03-0.6068z" fill="#ffa116"/><path d="m233.3 314.8c-12.51 0-22.64-10.16-22.64-22.68 0-12.53 10.14-22.68 22.64-22.68h167c12.51 0 22.64 10.16 22.64 22.68 0 12.53-10.14 22.68-22.64 22.68z" fill="#b3b3b3"/><path d="m264.6 66.21c8.544-9.148 22.87-9.626 32.01-1.068 9.132 8.559 9.609 22.91 1.066 32.06l-152 162.8c-16.52 17.68-14.71 46.18 4.325 64.84l70.2 68.83c8.937 8.763 9.09 23.12 0.3417 32.08-8.748 8.952-23.08 9.106-32.02 0.3424l-70.2-68.83c-36.05-35.36-39.65-91.93-5.715-128.3z"/></g></svg>
