<?xml version="1.0" encoding="UTF-8" standalone="no"?>
<svg
   xmlns:dc="http://purl.org/dc/elements/1.1/"
   xmlns:cc="http://creativecommons.org/ns#"
   xmlns:rdf="http://www.w3.org/1999/02/22-rdf-syntax-ns#"
   xmlns:svg="http://www.w3.org/2000/svg"
   xmlns="http://www.w3.org/2000/svg"
   xmlns:sodipodi="http://sodipodi.sourceforge.net/DTD/sodipodi-0.dtd"
   xmlns:inkscape="http://www.inkscape.org/namespaces/inkscape"
   version="1.1"
   x="0px"
   y="0px"
   width="512"
   height="512"
   viewBox="0 0 512 512"
   enable-background="new 0 0 256 256"
   xml:space="preserve"
   id="svg2"
   sodipodi:docname="linkedin-white.svg"
   inkscape:version="0.92.3 (2405546, 2018-03-11)"><sodipodi:namedview
     pagecolor="#ffffff"
     bordercolor="#666666"
     borderopacity="1"
     objecttolerance="10"
     gridtolerance="10"
     guidetolerance="10"
     inkscape:pageopacity="0"
     inkscape:pageshadow="2"
     inkscape:window-width="756"
     inkscape:window-height="480"
     id="namedview8"
     showgrid="false"
     showguides="false"
     inkscape:zoom="0.4609375"
     inkscape:cx="232.40678"
     inkscape:cy="256"
     inkscape:window-x="67"
     inkscape:window-y="27"
     inkscape:window-maximized="0"
     inkscape:current-layer="svg2" /><metadata
     id="metadata14"><rdf:RDF><cc:Work
         rdf:about=""><dc:format>image/svg+xml</dc:format><dc:type
           rdf:resource="http://purl.org/dc/dcmitype/StillImage" /><dc:title /></cc:Work></rdf:RDF></metadata><defs
     id="defs4" /><rect
     width="512"
     height="512"
     id="rect6"
     x="0"
     y="-7.4505806e-09"
     style="fill:#ffffff" /><path
     d="m 87.605134,197.6543 72.238006,0 0,232.07422 -72.238006,0 0,-232.07422 z M 123.7505,82.28516 c 23.09562,0 41.82504,18.7539 41.82504,41.81348 0,23.08202 -18.72942,41.83202 -41.82504,41.83202 -23.18155,0 -41.86507,-18.75 -41.86507,-41.83202 0,-23.05958 18.68352,-41.81348 41.86507,-41.81348"
     id="path8"
     style="fill:#000000" /><path
     d="m 205.13204,197.6543 69.17941,0 0,31.71874 0.98242,0 c 9.62106,-18.25878 33.17955,-37.4873 68.29076,-37.4873 73.0212,0 86.53091,48.04298 86.53091,110.5459 l 0,127.29688 -72.10715,0 0,-112.83204 c 0,-26.9375 -0.53123,-61.56152 -37.51157,-61.56152 -37.5604,0 -43.28498,29.31544 -43.28498,59.56934 l 0,114.82422 -72.0798,0 0,-232.07422 z"
     id="path10"
     style="fill:#000000" /></svg>