<?xml version="1.0" encoding="UTF-8" standalone="no"?>
<svg
   xmlns:dc="http://purl.org/dc/elements/1.1/"
   xmlns:cc="http://creativecommons.org/ns#"
   xmlns:rdf="http://www.w3.org/1999/02/22-rdf-syntax-ns#"
   xmlns:svg="http://www.w3.org/2000/svg"
   xmlns="http://www.w3.org/2000/svg"
   id="svg2"
   xml:space="preserve"
   enable-background="new 0 0 1000 1000"
   viewBox="0 0 1000 1000"
   y="0px"
   x="0px"
   version="1.1"><defs
     id="defs12" /><metadata
     id="metadata4"> Svg Vector Icons : http://www.onlinewebfonts.com/icon <rdf:RDF><cc:Work
     rdf:about=""><dc:format>image/svg+xml</dc:format><dc:type
       rdf:resource="http://purl.org/dc/dcmitype/StillImage" /><dc:title></dc:title></cc:Work></rdf:RDF></metadata><g
     transform="translate(48.728814,-44.491525)"
     id="g6"><path
       d="m 0.58045521,263.30006 c 0,0 -7.70124721,47.45967 43.15673579,102.86174 50.858012,55.40208 291.725339,315.98609 403.985879,315.98609 112.26055,0 371.28552,-278.96235 414.43448,-321.28926 43.14897,-42.32691 39.7889,-97.72197 39.7889,-97.72197 m -833.701092,-69.44688 766.295462,0 c 37.41048,0 67.52794,30.36729 67.52794,68.0881 l 0,565.42729 c 0,37.72082 -30.11746,68.0881 -67.52794,68.0881 l -766.295462,0 c -37.410521,0 -67.52791234,-30.36728 -67.52791234,-68.0881 l 0,-565.42729 c 0,-37.72081 30.11739134,-68.0881 67.52791234,-68.0881 z"
       style="fill:none;fill-rule:evenodd;stroke:#000000;stroke-width:98.39650726;stroke-linecap:butt;stroke-linejoin:miter;stroke-miterlimit:4;stroke-dasharray:none;stroke-opacity:1"
       id="path4142" /></g></svg>