<?xml version="1.0" encoding="UTF-8" standalone="no"?>
<!-- Created with Inkscape (http://www.inkscape.org/) -->

<svg
   xmlns:dc="http://purl.org/dc/elements/1.1/"
   xmlns:cc="http://creativecommons.org/ns#"
   xmlns:rdf="http://www.w3.org/1999/02/22-rdf-syntax-ns#"
   xmlns:svg="http://www.w3.org/2000/svg"
   xmlns="http://www.w3.org/2000/svg"
   xmlns:sodipodi="http://sodipodi.sourceforge.net/DTD/sodipodi-0.dtd"
   xmlns:inkscape="http://www.inkscape.org/namespaces/inkscape"
   id="svg2"
   version="1.1"
   inkscape:version="0.91 r13725"
   width="103.38235"
   height="44.14978"
   sodipodi:docname="name.svg">
  <metadata
     id="metadata8">
    <rdf:RDF>
      <cc:Work
         rdf:about="">
        <dc:format>image/svg+xml</dc:format>
        <dc:type
           rdf:resource="http://purl.org/dc/dcmitype/StillImage" />
        <dc:title />
      </cc:Work>
    </rdf:RDF>
  </metadata>
  <defs
     id="defs6">
    <filter
       id="filter2987"
       inkscape:label="Invert"
       x="0"
       y="0"
       width="1"
       height="1"
       inkscape:menu="Color"
       inkscape:menu-tooltip="Invert colors"
       color-interpolation-filters="sRGB">
      <feColorMatrix
         id="feColorMatrix2989"
         type="saturate"
         values="1"
         result="fbSourceGraphic" />
      <feColorMatrix
         id="feColorMatrix2991"
         in="fbSourceGraphic"
         values="-1 0 0 0 1 0 -1 0 0 1 0 0 -1 0 1 0 0 0 1 0 " />
    </filter>
  </defs>
  <sodipodi:namedview
     pagecolor="#ffffff"
     bordercolor="#666666"
     borderopacity="1"
     objecttolerance="10"
     gridtolerance="10"
     guidetolerance="10"
     inkscape:pageopacity="0"
     inkscape:pageshadow="2"
     inkscape:window-width="1317"
     inkscape:window-height="744"
     id="namedview4"
     showgrid="false"
     inkscape:zoom="9.44"
     inkscape:cx="52.937062"
     inkscape:cy="27.43669"
     inkscape:window-x="49"
     inkscape:window-y="24"
     inkscape:window-maximized="1"
     inkscape:current-layer="svg2"
     fit-margin-top="0"
     fit-margin-left="0"
     fit-margin-right="0"
     fit-margin-bottom="0" />
  <path
     id="path2985-6"
     style="font-size:medium;font-style:normal;font-variant:normal;font-weight:normal;font-stretch:normal;text-indent:0;text-align:start;text-decoration:none;line-height:normal;letter-spacing:normal;word-spacing:normal;text-transform:none;direction:ltr;block-progression:tb;writing-mode:lr-tb;text-anchor:start;baseline-shift:baseline;color:#000000;fill:#ffffff;fill-opacity:1;stroke:none;stroke-width:1px;marker:none;visibility:visible;display:inline;overflow:visible;enable-background:accumulate;font-family:Sans;-inkscape-font-specification:Sans"
     d="m 52.839436,24.406107 c 1.058956,3.333434 5.245351,3.63773 7.524565,1.817883 2.194848,-1.096432 2.939304,1.976285 4.504434,0.395573 -1.495859,-2.250347 -1.441989,-5.672684 -3.833261,-8.10996 -5.521298,-0.329238 -8.451612,2.619293 -8.195738,5.896504 z m 7.523315,-3.522687 c 1.625663,3.848865 -2.44625,7.061587 -4.942885,3.880628 -1.493296,-4.207334 2.495672,-4.287928 4.942885,-3.880628 z m 39.259295,-1.83 c -3.530096,-0.491846 2.568474,5.788189 -1.028613,5.058268 -1.644918,-0.249839 -3.175503,2.204942 -0.51302,1.64301 1.410461,-0.0087 6.004537,0.428306 5.046647,-1.721814 -1.87531,-0.718933 -4.30696,-4.104444 0.25492,-4.121308 0.0332,-1.782687 -2.16229,-1.26283 -3.759934,-0.858156 z m -5.372368,-7.863288 c -1.524603,4.310835 -2.964317,8.930079 -1.94979,13.498058 -1.552962,2.498986 4.850297,1.84844 1.651499,0.191531 -1.531752,-3.218458 -0.421914,-6.84178 0.505947,-10.060839 0.491629,-1.104292 1.444745,-2.940438 -0.207656,-3.62875 z m -10.653337,8.494566 c -1.388001,1.089247 -1.729008,2.323807 -0.892235,4.693433 1.175722,2.584129 5.09065,2.584244 7.205551,1.867978 0.533923,-0.180826 1.454334,0.192159 0.862328,-0.520862 -0.887355,-1.263766 -4.867619,0.798331 -5.821772,-0.902076 1.31874,0.267888 2.310472,-0.847702 2.93463,-0.970163 4.170243,-2.651549 -1.729395,-6.551193 -4.288502,-4.16831 z m 1.96141,1.111851 c 0.625708,-0.0055 1.470123,0.499917 1.429539,1.337174 -0.812806,2.079476 -2.809534,1.741725 -3.139778,1.232897 -0.697793,-1.209501 0.0064,-2.802975 1.710239,-2.570071 z m -8.116366,-1.503664 c -2.923042,-0.527207 0.220287,7.95305 2.722736,7.889779 1.121501,-0.186278 3.361056,-0.801624 1.167726,-1.656553 C 78.815,24.407806 78.140446,20.531295 77.441385,19.292885 z m -7.435687,-1.13687 c -3.182404,1.028452 -5.560235,5.818949 -4.029999,8.737387 2.514278,1.96713 1.193856,-5.303775 2.863278,-6.618329 3.378073,-2.804398 3.834855,3.786225 3.747053,6.397306 1.574565,1.780347 3.846836,-0.04527 1.854572,-2.405581 -0.521538,-2.315007 -1.099083,-7.100239 -4.434904,-6.110783 z M 0.00116524,13.845975 C -0.16797439,27.46281 18.127042,26.302694 21.790006,23.497299 25.452971,20.691905 22.643731,41.618543 23.85963,43.709396 25.075532,45.80025 51.287606,40.590109 49.980095,24.982676 48.672584,9.3752435 15.504002,9.4761255 15.798101,13.478156 c 0.294099,4.002031 6.131127,0.825813 7.398399,1.617203 1.267274,0.791392 -1.392114,4.749271 -3.55332,6.498629 C 17.481974,23.343344 12.691512,24.251339 6.5874598,21.390856 1.5821325,19.045256 0.99466714,8.7946555 8.4989283,5.749964 16.003191,2.705274 29.421268,12.445781 26.160792,4.1949592 22.900316,-4.0558636 0.17030492,0.22914016 0.00116524,13.845975 z M 40.577128,18.60368 c -1.146197,3.234108 -13.163219,7.755354 -13.997914,7.119399 -0.834697,-0.635955 -0.800184,-10.196941 0.32162,-10.700603 1.121804,-0.503661 14.822491,0.347096 13.676294,3.581204 z m 2.513584,2.42025 c 0.410963,0.09665 5.553413,1.587413 2.31049,8.621595 C 42.158279,36.679707 27.1923,43.263249 26.30148,41.127241 25.410659,38.991232 26.858387,28.897089 27.196396,28.56664 c 0.338011,-0.330448 5.079112,-2.042903 9.169516,-4.004844 3.437024,-1.648552 6.313837,-3.63452 6.7248,-3.537866 z"
     inkscape:connector-curvature="0" />
</svg>
