<?xml version="1.0" encoding="UTF-8" standalone="no"?>
<!-- Created with Inkscape (http://www.inkscape.org/) -->

<svg
   xmlns:dc="http://purl.org/dc/elements/1.1/"
   xmlns:cc="http://creativecommons.org/ns#"
   xmlns:rdf="http://www.w3.org/1999/02/22-rdf-syntax-ns#"
   xmlns:svg="http://www.w3.org/2000/svg"
   xmlns="http://www.w3.org/2000/svg"
   xmlns:xlink="http://www.w3.org/1999/xlink"
   xmlns:sodipodi="http://sodipodi.sourceforge.net/DTD/sodipodi-0.dtd"
   xmlns:inkscape="http://www.inkscape.org/namespaces/inkscape"
   version="1.1"
   width="400"
   height="400"
   id="svg2"
   inkscape:version="0.91 r13725"
   sodipodi:docname="me.svg"
   inkscape:export-filename="/home/gpdaniels/Projects/Logos/Icon/Icon300DPI.png"
   inkscape:export-xdpi="299.92499"
   inkscape:export-ydpi="299.92499">
  <sodipodi:namedview
     pagecolor="#ffffff"
     bordercolor="#666666"
     borderopacity="1"
     objecttolerance="10"
     gridtolerance="10"
     guidetolerance="10"
     inkscape:pageopacity="0"
     inkscape:pageshadow="2"
     inkscape:window-width="1871"
     inkscape:window-height="1056"
     id="namedview14"
     showgrid="false"
     fit-margin-top="0"
     fit-margin-left="0"
     fit-margin-right="0"
     fit-margin-bottom="0"
     inkscape:zoom="1"
     inkscape:cx="114.40454"
     inkscape:cy="184.92283"
     inkscape:window-x="1415"
     inkscape:window-y="24"
     inkscape:window-maximized="1"
     inkscape:current-layer="g2996"
     inkscape:snap-page="true"
     inkscape:snap-bbox="true"
     inkscape:bbox-paths="true"
     inkscape:bbox-nodes="true"
     inkscape:snap-bbox-edge-midpoints="true"
     inkscape:snap-bbox-midpoints="true" />
  <defs
     id="defs4">
    <linearGradient
       id="linearGradient3075">
      <stop
         id="stop3077"
         style="stop-color:#000000;stop-opacity:0"
         offset="0" />
      <stop
         id="stop3085"
         style="stop-color:#000000;stop-opacity:1"
         offset="0.30800927" />
      <stop
         id="stop3083"
         style="stop-color:#000000;stop-opacity:1"
         offset="0.66240358" />
      <stop
         id="stop3079"
         style="stop-color:#000000;stop-opacity:0"
         offset="1" />
    </linearGradient>
    <linearGradient
       x1="900.00006"
       y1="163.79076"
       x2="1502.8572"
       y2="763.79071"
       id="linearGradient3081"
       xlink:href="#linearGradient3075"
       gradientUnits="userSpaceOnUse"
       gradientTransform="translate(-830.34539,22.223356)" />
  </defs>
  <metadata
     id="metadata7">
    <rdf:RDF>
      <cc:Work
         rdf:about="">
        <dc:format>image/svg+xml</dc:format>
        <dc:type
           rdf:resource="http://purl.org/dc/dcmitype/StillImage" />
        <dc:title />
      </cc:Work>
    </rdf:RDF>
  </metadata>
  <g
     id="layer1"
     transform="translate(-167.0016,-308.96129)">
    <g
       transform="matrix(0.64749492,0,0,0.64600357,121.96998,194.93627)"
       id="g2996">
      <rect
         style="opacity:1;fill:#ffffff;fill-opacity:1;fill-rule:evenodd;stroke:none;stroke-width:0.48318607;stroke-miterlimit:4;stroke-dasharray:none;stroke-dashoffset:0;stroke-opacity:1"
         id="rect4142"
         width="617.76544"
         height="619.19165"
         x="69.547447"
         y="176.50835" />
      <path
         d="m 69.547449,795.69997 c 0,-21.31857 0,-53.61126 0,-78.0712 28.75203,-23.34928 68.239191,-27.9488 96.818701,-45.72844 23.84186,-10.99946 31.45066,-16.21292 38.43126,-31.20519 4.5844,-11.52318 15.9889,-29.71739 12.6783,-7.25984 1.0207,62.08832 37.565,116.05896 75.5666,162.26467 -72.26469,0 -196.235317,0 -223.494861,0 z m 380.739751,0 c 10.7354,-8.87014 27.68181,-13.64703 22.62091,-58.18895 -4.2762,-35.10931 -1.3376,-65.07376 5.8607,-99.60307 18.3288,-19.50727 20.9299,13.92885 35.0016,42.64923 14.4754,24.12718 31.7732,27.27332 48.2865,37.6146 43.2002,22.60508 84.1633,47.28532 125.256,77.52819 -91.6627,0 -171.69201,0.54552 -237.02571,0 z M 132.22213,458.94568 c -35.206804,-22.81421 -33.091402,-45.4237 -32.18156,-66.78284 2.65411,-20.10383 3.05803,-22.53384 18.101,-50.50479 14.54736,-16.06364 24.5658,-28.84484 56.80104,-43.42475 -0.068,-36.17022 -0.44076,-85.55474 -0.50896,-121.72496 112.8531,0.16859 225.7063,-0.16859 338.5594,0 3.62153,10.69798 7.17336,19.36453 15.82556,34.49876 35.0469,-0.42367 58.1757,2.56527 96.5364,22.59 38.4111,24.87497 30.7654,72.70655 5.0089,101.36025 -34.7166,29.93619 -48.8748,39.65657 -70.727,53.71807 -14.727,11.76783 -12.4132,71.56425 -29.2762,82.0519 0.01,-16.10163 8.6156,-44.18361 3.3716,-66.55277 -24.9546,12.24622 -28.6834,15.19543 -65.4787,26.73947 -105.2241,34.90993 -296.93497,56.68737 -336.03148,28.03166 z"
         id="path2998"
         style="fill:url(#linearGradient3081);fill-opacity:1"
         inkscape:connector-curvature="0"
         sodipodi:nodetypes="cccccccccccccccccccccccccccc" />
      <path
         style="font-size:medium;font-style:normal;font-variant:normal;font-weight:normal;font-stretch:normal;text-indent:0;text-align:start;text-decoration:none;line-height:normal;letter-spacing:normal;word-spacing:normal;text-transform:none;direction:ltr;block-progression:tb;writing-mode:lr-tb;text-anchor:start;baseline-shift:baseline;color:#000000;fill:#ffffff;fill-opacity:1;stroke:none;stroke-width:1px;marker:none;visibility:visible;display:inline;overflow:visible;enable-background:accumulate;font-family:Sans;-inkscape-font-specification:Sans"
         d="m 81.904557,736.40647 c -0.26122,21.07858 27.993843,19.28274 33.650963,14.94005 5.65714,-4.34269 1.31851,28.05131 3.19636,31.2879 1.87785,3.2366 42.36014,-4.82859 40.3408,-28.98857 -2.01934,-24.15998 -53.24534,-24.00381 -52.79113,-17.80875 0.45421,6.19506 9.46899,1.27834 11.42618,2.50339 1.9572,1.22506 -2.15,7.35178 -5.48779,10.05974 -3.33779,2.70797 -10.73625,4.11353 -20.163422,-0.31444 -7.730294,-3.63094 -8.637584,-19.49865 2.952097,-24.21177 11.589675,-4.71312 32.312735,10.36498 27.277205,-2.40712 -5.03552,-12.7721 -40.140033,-6.139 -40.401263,14.93957 z m 62.666053,7.36483 c -1.7702,5.00633 -20.32946,12.00513 -21.61857,11.02068 -1.28912,-0.98444 -1.23581,-15.78465 0.49671,-16.56431 1.73253,-0.77965 22.89206,0.5373 21.12186,5.54363 z m 3.88201,3.7465 c 0.6347,0.14961 8.57677,2.45728 3.56836,13.34605 -5.00842,10.88876 -28.12208,21.07995 -29.49788,17.77345 -1.37579,-3.3065 0.8601,-18.93202 1.38212,-19.44355 0.52203,-0.51152 7.84425,-3.16237 14.16153,-6.19941 5.30819,-2.55192 9.75118,-5.62616 10.38587,-5.47654 z"
         id="path11"
         inkscape:connector-curvature="0"
         sodipodi:nodetypes="zzzzzzzszzzzzzzzzzzsz" />
    </g>
  </g>
</svg>
