<?xml version="1.0" standalone="no"?>
<!DOCTYPE svg PUBLIC "-//W3C//DTD SVG 1.1//EN" "http://www.w3.org/Graphics/SVG/1.1/DTD/svg11.dtd" >
<svg xmlns="http://www.w3.org/2000/svg">
<metadata></metadata>
<defs>
<font id="square" horiz-adv-x="640" >
<font-face units-per-em="1024" ascent="819" descent="-205" />
<missing-glyph horiz-adv-x="256" />
<glyph horiz-adv-x="0" />
<glyph horiz-adv-x="341" />
<glyph unicode=" "  horiz-adv-x="256" />
<glyph unicode="&#x09;" horiz-adv-x="256" />
<glyph unicode="&#xa0;" horiz-adv-x="256" />
<glyph unicode="!" horiz-adv-x="256" d="M0 0v128h128v-128h-128zM0 256v384h128v-384h-128z" />
<glyph unicode="&#x22;" horiz-adv-x="512" d="M0 384v256h128v-256h-128zM256 384v256h128v-256h-128z" />
<glyph unicode="#" horiz-adv-x="768" d="M384 256v128h-128v-128h128zM128 0v128h-128v128h128v128h-128v128h128v128h128v-128h128v128h128v-128h128v-128h-128v-128h128v-128h-128v-128h-128v128h-128v-128h-128z" />
<glyph unicode="$" horiz-adv-x="512" d="M128 -128v128h-128v128h256v128h-256v384h128v128h128v-128h128v-128h-256v-128h256v-384h-128v-128h-128z" />
<glyph unicode="%" horiz-adv-x="768" d="M0 0v128h128v-128h-128zM512 0v128h128v-128h-128zM128 128v128h128v-128h-128zM256 256v128h128v-128h-128zM384 384v128h128v-128h-128zM0 512v128h128v-128h-128zM512 512v128h128v-128h-128z" />
<glyph unicode="&#x26;" horiz-adv-x="768" d="M512 384v128h-384v-128h384zM256 -128v128h-256v640h256v128h128v-128h256v-384h-512v-128h384v-128h-128v-128h-128z" />
<glyph unicode="'" horiz-adv-x="256" d="M0 384v256h128v-256h-128z" />
<glyph unicode="(" horiz-adv-x="384" d="M128 0v128h128v-128h-128zM0 128v384h128v-384h-128zM128 512v128h128v-128h-128z" />
<glyph unicode=")" horiz-adv-x="384" d="M0 0v128h128v-128h-128zM128 128v384h128v-384h-128zM0 512v128h128v-128h-128z" />
<glyph unicode="*" horiz-adv-x="512" d="M128 256v128h128v-128h-128zM0 384v128h128v-128h-128zM256 384v128h128v-128h-128zM128 512v128h128v-128h-128z" />
<glyph unicode="+" horiz-adv-x="512" d="M128 128v128h-128v128h128v128h128v-128h128v-128h-128v-128h-128z" />
<glyph unicode="," horiz-adv-x="256" d="M0 -128v256h128v-256h-128z" />
<glyph unicode="-" horiz-adv-x="512" d="M0 256v128h384v-128h-384z" />
<glyph unicode="." horiz-adv-x="256" d="M0 0v128h128v-128h-128z" />
<glyph unicode="/" horiz-adv-x="768" d="M0 0v128h128v-128h-128zM128 128v128h128v-128h-128zM256 256v128h128v-128h-128zM384 384v128h128v-128h-128zM512 512v128h128v-128h-128z" />
<glyph unicode="0" d="M384 128v384h-256v-384h256zM0 0v640h512v-640h-512z" />
<glyph unicode="1" horiz-adv-x="384" d="M128 0v512h-128v128h256v-640h-128z" />
<glyph unicode="2" d="M0 0v384h384v128h-384v128h512v-384h-384v-128h384v-128h-512z" />
<glyph unicode="3" d="M0 0v128h384v128h-384v128h384v128h-384v128h512v-640h-512z" />
<glyph unicode="4" d="M384 0v256h-384v384h128v-256h256v256h128v-640h-128z" />
<glyph unicode="5" d="M0 0v128h384v128h-384v384h512v-128h-384v-128h384v-384h-512z" />
<glyph unicode="6" d="M384 128v128h-256v-128h256zM0 0v640h512v-128h-384v-128h384v-384h-512z" />
<glyph unicode="7" d="M128 0v256h128v-256h-128zM256 256v128h128v-128h-128zM384 384v128h-384v128h512v-256h-128z" />
<glyph unicode="8" d="M384 128v128h-256v-128h256zM384 384v128h-256v-128h256zM0 0v640h512v-640h-512z" />
<glyph unicode="9" d="M384 384v128h-256v-128h256zM0 0v128h384v128h-384v384h512v-640h-512z" />
<glyph unicode=":" horiz-adv-x="256" d="M0 128v128h128v-128h-128zM0 384v128h128v-128h-128z" />
<glyph unicode=";" horiz-adv-x="256" d="M0 0v256h128v-256h-128zM0 384v128h128v-128h-128z" />
<glyph unicode="&#x3c;" horiz-adv-x="512" d="M256 0v128h128v-128h-128zM128 128v128h128v-128h-128zM0 256v128h128v-128h-128zM128 384v128h128v-128h-128zM256 512v128h128v-128h-128z" />
<glyph unicode="=" horiz-adv-x="512" d="M0 128v128h384v-128h-384zM0 384v128h384v-128h-384z" />
<glyph unicode="&#x3e;" horiz-adv-x="512" d="M0 0v128h128v-128h-128zM128 128v128h128v-128h-128zM256 256v128h128v-128h-128zM128 384v128h128v-128h-128zM0 512v128h128v-128h-128z" />
<glyph unicode="?" d="M128 0v128h128v-128h-128zM128 256v128h256v128h-384v128h512v-384h-384z" />
<glyph unicode="@" d="M0 0v640h512v-384h-256v128h128v128h-256v-384h384v-128h-512z" />
<glyph unicode="A" d="M384 384v128h-256v-128h256zM0 0v640h512v-640h-128v256h-256v-256h-128z" />
<glyph unicode="B" d="M0 0v640h512v-256h-128v128h-256v-128h256v-128h-256v-128h256v128h128v-256h-512z" />
<glyph unicode="C" d="M0 0v640h512v-128h-384v-384h384v-128h-512z" />
<glyph unicode="D" d="M384 128v384h128v-384h-128zM0 0v640h384v-128h-256v-384h256v-128h-384z" />
<glyph unicode="E" d="M0 0v640h512v-128h-384v-128h384v-128h-384v-128h384v-128h-512z" />
<glyph unicode="F" d="M0 0v640h512v-128h-384v-128h384v-128h-384v-256h-128z" />
<glyph unicode="G" d="M0 0v640h512v-128h-384v-384h256v128h-128v128h256v-384h-512z" />
<glyph unicode="H" d="M0 0v640h128v-256h256v256h128v-640h-128v256h-256v-256h-128z" />
<glyph unicode="I" horiz-adv-x="256" d="M0 0v640h128v-640h-128z" />
<glyph unicode="J" horiz-adv-x="512" d="M0 0v128h256v-128h-256zM256 128v384h-256v128h384v-512h-128z" />
<glyph unicode="K" d="M384 0v256h128v-256h-128zM0 0v640h128v-256h256v-128h-256v-256h-128zM384 384v256h128v-256h-128z" />
<glyph unicode="L" horiz-adv-x="512" d="M0 0v640h128v-512h256v-128h-384z" />
<glyph unicode="M" horiz-adv-x="768" d="M0 0v640h640v-640h-128v512h-128v-512h-128v512h-128v-512h-128z" />
<glyph unicode="N" d="M0 0v640h512v-640h-128v512h-256v-512h-128z" />
<glyph unicode="O" d="M384 128v384h-256v-384h256zM0 0v640h512v-640h-512z" />
<glyph unicode="P" d="M384 384v128h-256v-128h256zM0 0v640h512v-384h-384v-256h-128z" />
<glyph unicode="Q" d="M256 128v128h128v256h-256v-384h128zM0 0v640h512v-640h-512z" />
<glyph unicode="R" d="M384 0v256h128v-256h-128zM0 0v640h512v-256h-128v128h-256v-128h256v-128h-256v-256h-128z" />
<glyph unicode="S" d="M0 0v128h384v128h-384v384h512v-128h-384v-128h384v-384h-512z" />
<glyph unicode="T" horiz-adv-x="512" d="M128 0v512h-128v128h384v-128h-128v-512h-128z" />
<glyph unicode="U" d="M0 0v640h128v-512h256v512h128v-640h-512z" />
<glyph unicode="V" horiz-adv-x="768" d="M256 0v128h128v-128h-128zM128 128v128h128v-128h-128zM384 128v128h128v-128h-128zM0 256v384h128v-384h-128zM512 256v384h128v-384h-128z" />
<glyph unicode="W" horiz-adv-x="768" d="M0 0v640h128v-512h128v512h128v-512h128v512h128v-640h-640z" />
<glyph unicode="X" d="M0 0v256h128v-256h-128zM384 0v256h128v-256h-128zM128 256v128h256v-128h-256zM0 384v256h128v-256h-128zM384 384v256h128v-256h-128z" />
<glyph unicode="Y" d="M128 0v128h256v128h-384v384h128v-256h256v256h128v-640h-384z" />
<glyph unicode="Z" d="M0 0v256h128v-128h384v-128h-512zM128 256v128h256v-128h-256zM384 384v128h-384v128h512v-256h-128z" />
<glyph unicode="[" horiz-adv-x="384" d="M0 0v640h256v-128h-128v-384h128v-128h-256z" />
<glyph unicode="\" horiz-adv-x="768" d="M512 0v128h128v-128h-128zM384 128v128h128v-128h-128zM256 256v128h128v-128h-128zM128 384v128h128v-128h-128zM0 512v128h128v-128h-128z" />
<glyph unicode="]" horiz-adv-x="384" d="M0 0v128h128v384h-128v128h256v-640h-256z" />
<glyph unicode="^" horiz-adv-x="512" d="M0 384v128h128v-128h-128zM256 384v128h128v-128h-128zM128 512v128h128v-128h-128z" />
<glyph unicode="_" d="M0 0v128h512v-128h-512z" />
<glyph unicode="`" d="M384 384v256h128v-256h-128z" />
<glyph unicode="a" d="M384 384v128h-256v-128h256zM0 0v640h512v-640h-128v256h-256v-256h-128z" />
<glyph unicode="b" d="M0 0v640h512v-256h-128v128h-256v-128h256v-128h-256v-128h256v128h128v-256h-512z" />
<glyph unicode="c" d="M0 0v640h512v-128h-384v-384h384v-128h-512z" />
<glyph unicode="d" d="M384 128v384h128v-384h-128zM0 0v640h384v-128h-256v-384h256v-128h-384z" />
<glyph unicode="e" d="M0 0v640h512v-128h-384v-128h384v-128h-384v-128h384v-128h-512z" />
<glyph unicode="f" d="M0 0v640h512v-128h-384v-128h384v-128h-384v-256h-128z" />
<glyph unicode="g" d="M0 0v640h512v-128h-384v-384h256v128h-128v128h256v-384h-512z" />
<glyph unicode="h" d="M0 0v640h128v-256h256v256h128v-640h-128v256h-256v-256h-128z" />
<glyph unicode="i" horiz-adv-x="256" d="M0 0v640h128v-640h-128z" />
<glyph unicode="j" horiz-adv-x="512" d="M0 0v128h256v-128h-256zM256 128v384h-256v128h384v-512h-128z" />
<glyph unicode="k" d="M384 0v256h128v-256h-128zM0 0v640h128v-256h256v-128h-256v-256h-128zM384 384v256h128v-256h-128z" />
<glyph unicode="l" horiz-adv-x="512" d="M0 0v640h128v-512h256v-128h-384z" />
<glyph unicode="m" horiz-adv-x="768" d="M0 0v640h640v-640h-128v512h-128v-512h-128v512h-128v-512h-128z" />
<glyph unicode="n" d="M0 0v640h512v-640h-128v512h-256v-512h-128z" />
<glyph unicode="o" d="M384 128v384h-256v-384h256zM0 0v640h512v-640h-512z" />
<glyph unicode="p" d="M384 384v128h-256v-128h256zM0 0v640h512v-384h-384v-256h-128z" />
<glyph unicode="q" d="M256 128v128h128v256h-256v-384h128zM0 0v640h512v-640h-512z" />
<glyph unicode="r" d="M384 0v256h128v-256h-128zM0 0v640h512v-256h-128v128h-256v-128h256v-128h-256v-256h-128z" />
<glyph unicode="s" d="M0 0v128h384v128h-384v384h512v-128h-384v-128h384v-384h-512z" />
<glyph unicode="t" horiz-adv-x="512" d="M128 0v512h-128v128h384v-128h-128v-512h-128z" />
<glyph unicode="u" d="M0 0v640h128v-512h256v512h128v-640h-512z" />
<glyph unicode="v" horiz-adv-x="768" d="M256 0v128h128v-128h-128zM128 128v128h128v-128h-128zM384 128v128h128v-128h-128zM0 256v384h128v-384h-128zM512 256v384h128v-384h-128z" />
<glyph unicode="w" horiz-adv-x="768" d="M0 0v640h128v-512h128v512h128v-512h128v512h128v-640h-640z" />
<glyph unicode="x" d="M0 0v256h128v-256h-128zM384 0v256h128v-256h-128zM128 256v128h256v-128h-256zM0 384v256h128v-256h-128zM384 384v256h128v-256h-128z" />
<glyph unicode="y" d="M128 0v128h256v128h-384v384h128v-256h256v256h128v-640h-384z" />
<glyph unicode="z" d="M0 0v256h128v-128h384v-128h-512zM128 256v128h256v-128h-256zM384 384v128h-384v128h512v-256h-128z" />
<glyph unicode="{" horiz-adv-x="512" d="M256 0v128h128v-128h-128zM128 128v128h-128v128h128v128h128v-384h-128zM256 512v128h128v-128h-128z" />
<glyph unicode="|" horiz-adv-x="256" d="M0 0v640h128v-640h-128z" />
<glyph unicode="}" horiz-adv-x="512" d="M0 0v128h128v-128h-128zM128 128v384h128v-128h128v-128h-128v-128h-128zM0 512v128h128v-128h-128z" />
<glyph unicode="~" d="M0 256v128h128v-128h-128zM256 256v128h128v-128h-128zM128 384v128h128v-128h-128zM384 384v128h128v-128h-128z" />
<glyph unicode="&#xa1;" horiz-adv-x="256" d="M0 0v384h128v-384h-128zM0 512v128h128v-128h-128z" />
<glyph unicode="&#xa2;" horiz-adv-x="512" d="M128 0v128h-128v384h128v128h128v-128h128v-128h-256v-128h256v-128h-128v-128h-128z" />
<glyph unicode="&#xa3;" d="M0 0v256h-128v128h128v256h512v-256h-128v128h-256v-128h128v-128h-128v-128h384v-128h-512z" />
<glyph unicode="&#xa4;" horiz-adv-x="896" d="M0 128v128h128v-128h-128zM256 128v128h256v-128h-256zM640 128v128h128v-128h-128zM128 256v256h128v-256h-128zM512 256v256h128v-256h-128zM0 512v128h128v-128h-128zM256 512v128h256v-128h-256zM640 512v128h128v-128h-128z" />
<glyph unicode="&#xa5;" horiz-adv-x="768" d="M256 0v128h-128v128h128v128h-128v128h384v-128h-128v-128h128v-128h-128v-128h-128zM0 512v128h128v-128h-128zM512 512v128h128v-128h-128z" />
<glyph unicode="&#xa6;" horiz-adv-x="256" d="M0 0v256h128v-256h-128zM0 384v256h128v-256h-128z" />
<glyph unicode="&#xa7;" d="M128 -128v128h256v128h128v-256h-384zM128 128v256h128v-128h128v-128h-256zM384 256v128h-128v128h256v-256h-128zM128 512v256h384v-128h-256v-128h-128z" />
<glyph unicode="&#xa8;" d="M0 512v128h128v-128h-128zM384 512v128h128v-128h-128z" />
<glyph unicode="&#xa9;" horiz-adv-x="768" d="M256 256v128h128v-128h-128zM512 128v384h-384v-384h384zM0 0v640h640v-640h-640z" />
<glyph unicode="&#xaa;" d="M128 256v128h128v-128h-128zM384 256v128h128v-128h-128zM0 384v128h128v-128h-128zM256 384v128h-128v128h128v128h128v-384h-128zM0 768v128h256v-128h-256z" />
<glyph unicode="&#xab;" horiz-adv-x="896" d="M256 0v128h128v-128h-128zM640 0v128h128v-128h-128zM128 128v128h128v-128h-128zM512 128v128h128v-128h-128zM0 256v128h128v-128h-128zM384 256v128h128v-128h-128zM128 384v128h128v-128h-128zM512 384v128h128v-128h-128zM256 512v128h128v-128h-128zM640 512v128 h128v-128h-128z" />
<glyph unicode="&#xac;" d="M384 128v128h-384v128h512v-256h-128z" />
<glyph unicode="&#xad;" horiz-adv-x="512" d="M128 256v128h256v-128h-256z" />
<glyph unicode="&#xae;" horiz-adv-x="768" d="M256 256v128h128v-128h-128zM512 128v384h-384v-384h384zM0 0v640h640v-640h-640z" />
<glyph unicode="&#xaf;" d="M0 512v128h512v-128h-512z" />
<glyph unicode="&#xb0;" horiz-adv-x="512" d="M256 512v128h-128v-128h128zM0 384v384h384v-384h-384z" />
<glyph unicode="&#xb1;" d="M128 128v128h384v-128h-384zM256 384v128h-128v128h128v128h128v-128h128v-128h-128v-128h-128z" />
<glyph unicode="&#xb2;" horiz-adv-x="512" d="M0 128v384h256v128h-256v128h384v-384h-256v-128h256v-128h-384z" />
<glyph unicode="&#xb3;" horiz-adv-x="512" d="M0 128v128h256v128h-256v128h256v128h-256v128h384v-640h-384z" />
<glyph unicode="&#xb4;" horiz-adv-x="384" d="M0 768v128h256v-128h-256z" />
<glyph unicode="&#xb5;" d="M0 -128v640h128v-384h256v384h128v-512h-384v-128h-128z" />
<glyph unicode="&#xb6;" d="M128 -128v384h-128v384h512v-768h-128v640h-128v-640h-128z" />
<glyph unicode="&#xb7;" horiz-adv-x="256" d="M0 256v128h128v-128h-128z" />
<glyph unicode="&#xb8;" horiz-adv-x="384" d="M0 -256v128h128v128h128v-256h-256zM0 0v128h128v-128h-128z" />
<glyph unicode="&#xb9;" horiz-adv-x="384" d="M128 384v256h128v-256h-128zM0 640v128h128v-128h-128z" />
<glyph unicode="&#xba;" d="M384 512v256h-128v-256h128zM128 384v512h384v-512h-384z" />
<glyph unicode="&#xbb;" horiz-adv-x="896" d="M0 0v128h128v-128h-128zM384 0v128h128v-128h-128zM128 128v128h128v-128h-128zM512 128v128h128v-128h-128zM256 256v128h128v-128h-128zM640 256v128h128v-128h-128zM128 384v128h128v-128h-128zM512 384v128h128v-128h-128zM0 512v128h128v-128h-128zM384 512v128h128 v-128h-128z" />
<glyph unicode="&#xbc;" horiz-adv-x="896" d="M0 0v128h128v-128h-128zM128 128v128h128v-128h-128zM512 0v256h256v-256h-256zM256 256v128h128v-128h-128zM384 384v128h128v-128h-128zM0 512v128h128v-128h-128zM512 512v128h128v-128h-128z" />
<glyph unicode="&#xbd;" horiz-adv-x="896" d="M0 0v128h128v-128h-128zM512 0v128h256v-128h-256zM128 128v128h128v-128h-128zM256 256v128h128v-128h-128zM384 384v128h128v-128h-128zM0 512v128h128v-128h-128zM512 512v128h128v-128h-128z" />
<glyph unicode="&#xbe;" horiz-adv-x="896" d="M0 0v128h128v-128h-128zM128 128v128h128v-128h-128zM512 0v256h256v-256h-256zM256 256v128h128v-128h-128zM384 384v128h128v-128h-128zM0 384v256h256v-128h-128v-128h-128zM512 512v128h128v-128h-128z" />
<glyph unicode="&#xbf;" d="M0 0v384h384v-128h-256v-128h384v-128h-512zM256 512v128h128v-128h-128z" />
<glyph unicode="&#xc0;" d="M384 384v128h-256v-128h256zM0 0v640h512v-640h-128v256h-256v-256h-128zM0 768v128h256v-128h-256z" />
<glyph unicode="&#xc1;" d="M384 384v128h-256v-128h256zM0 0v640h512v-640h-128v256h-256v-256h-128zM256 768v128h256v-128h-256z" />
<glyph unicode="&#xc2;" d="M384 384v128h-256v-128h256zM0 0v640h512v-640h-128v256h-256v-256h-128zM0 768v128h128v-128h-128zM384 768v128h128v-128h-128zM128 896v128h256v-128h-256z" />
<glyph unicode="&#xc3;" d="M384 384v128h-256v-128h256zM0 0v640h512v-640h-128v256h-256v-256h-128zM0 768v128h128v-128h-128zM256 768v128h128v-128h-128zM128 896v128h128v-128h-128zM384 896v128h128v-128h-128z" />
<glyph unicode="&#xc4;" d="M384 384v128h-256v-128h256zM0 0v640h512v-640h-128v256h-256v-256h-128zM0 768v128h128v-128h-128zM384 768v128h128v-128h-128z" />
<glyph unicode="&#xc5;" d="M384 384v128h-256v-128h256zM0 0v640h512v-640h-128v256h-256v-256h-128zM128 768v128h256v-128h-256z" />
<glyph unicode="&#xc6;" horiz-adv-x="896" d="M0 0v256h128v-256h-128zM384 0v256h-256v256h128v-128h128v128h-128v128h512v-128h-256v-128h256v-128h-256v-128h256v-128h-384z" />
<glyph unicode="&#xc7;" d="M256 -256v128h128v-128h-128zM384 -128v128h-384v640h512v-128h-384v-384h384v-256h-128z" />
<glyph unicode="&#xc8;" d="M0 0v640h512v-128h-384v-128h384v-128h-384v-128h384v-128h-512zM0 768v128h256v-128h-256z" />
<glyph unicode="&#xc9;" d="M0 0v640h512v-128h-384v-128h384v-128h-384v-128h384v-128h-512zM256 768v128h256v-128h-256z" />
<glyph unicode="&#xca;" d="M0 0v640h512v-128h-384v-128h384v-128h-384v-128h384v-128h-512zM0 768v128h128v-128h-128zM384 768v128h128v-128h-128zM128 896v128h256v-128h-256z" />
<glyph unicode="&#xcb;" d="M0 0v640h512v-128h-384v-128h384v-128h-384v-128h384v-128h-512zM0 768v128h128v-128h-128zM384 768v128h128v-128h-128z" />
<glyph unicode="&#xcc;" horiz-adv-x="256" d="M0 0v640h128v-640h-128zM-128 768v128h256v-128h-256z" />
<glyph unicode="&#xcd;" horiz-adv-x="384" d="M0 0v640h128v-640h-128zM0 768v128h256v-128h-256z" />
<glyph unicode="&#xce;" horiz-adv-x="384" d="M0 0v640h128v-640h-128zM-128 768v128h128v-128h-128zM128 768v128h128v-128h-128zM0 896v128h128v-128h-128z" />
<glyph unicode="&#xcf;" horiz-adv-x="384" d="M0 0v640h128v-640h-128zM-128 768v128h128v-128h-128zM128 768v128h128v-128h-128z" />
<glyph unicode="&#xd0;" d="M384 128v384h128v-384h-128zM0 0v256h-128v128h128v256h384v-128h-256v-128h128v-128h-128v-128h256v-128h-384z" />
<glyph unicode="&#xd1;" d="M0 0v640h512v-640h-128v512h-256v-512h-128zM0 768v128h128v-128h-128zM256 768v128h128v-128h-128zM128 896v128h128v-128h-128zM384 896v128h128v-128h-128z" />
<glyph unicode="&#xd2;" d="M384 128v384h-256v-384h256zM0 0v640h512v-640h-512zM0 768v128h256v-128h-256z" />
<glyph unicode="&#xd3;" d="M384 128v384h-256v-384h256zM0 0v640h512v-640h-512zM256 768v128h256v-128h-256z" />
<glyph unicode="&#xd4;" d="M384 128v384h-256v-384h256zM0 0v640h512v-640h-512zM0 768v128h128v-128h-128zM384 768v128h128v-128h-128zM128 896v128h256v-128h-256z" />
<glyph unicode="&#xd5;" d="M384 128v384h-256v-384h256zM0 0v640h512v-640h-512zM0 768v128h128v-128h-128zM256 768v128h128v-128h-128zM128 896v128h128v-128h-128zM384 896v128h128v-128h-128z" />
<glyph unicode="&#xd6;" d="M384 128v384h-256v-384h256zM0 0v640h512v-640h-512zM0 768v128h128v-128h-128zM384 768v128h128v-128h-128z" />
<glyph unicode="&#xd7;" horiz-adv-x="768" d="M0 0v128h128v-128h-128zM512 0v128h128v-128h-128zM128 128v128h128v-128h-128zM384 128v128h128v-128h-128zM256 256v128h128v-128h-128zM128 384v128h128v-128h-128zM384 384v128h128v-128h-128zM0 512v128h128v-128h-128zM512 512v128h128v-128h-128z" />
<glyph unicode="&#xd8;" d="M384 128v128h-128v128h128v128h-256v-256h128v-128h128zM0 0v640h512v-640h-512z" />
<glyph unicode="&#xd9;" d="M0 0v640h128v-512h256v512h128v-640h-512zM0 768v128h256v-128h-256z" />
<glyph unicode="&#xda;" d="M0 0v640h128v-512h256v512h128v-640h-512zM256 768v128h256v-128h-256z" />
<glyph unicode="&#xdb;" d="M0 0v640h128v-512h256v512h128v-640h-512zM0 768v128h128v-128h-128zM384 768v128h128v-128h-128zM128 896v128h256v-128h-256z" />
<glyph unicode="&#xdc;" d="M0 0v640h128v-512h256v512h128v-640h-512zM0 768v128h128v-128h-128zM384 768v128h128v-128h-128z" />
<glyph unicode="&#xdd;" d="M128 0v128h256v128h-384v384h128v-256h256v256h128v-640h-384zM0 768v128h256v-128h-256z" />
<glyph unicode="&#xde;" d="M384 256v128h-256v-128h256zM0 0v640h128v-128h384v-384h-384v-128h-128z" />
<glyph unicode="&#xdf;" d="M256 0v128h128v128h128v-256h-256zM256 256v128h128v-128h-128zM0 0v640h512v-256h-128v128h-256v-512h-128z" />
<glyph unicode="&#xe0;" d="M384 384v128h-256v-128h256zM0 0v640h512v-640h-128v256h-256v-256h-128zM0 768v128h256v-128h-256z" />
<glyph unicode="&#xe1;" d="M384 384v128h-256v-128h256zM0 0v640h512v-640h-128v256h-256v-256h-128zM256 768v128h256v-128h-256z" />
<glyph unicode="&#xe2;" d="M384 384v128h-256v-128h256zM0 0v640h512v-640h-128v256h-256v-256h-128zM0 768v128h128v-128h-128zM384 768v128h128v-128h-128zM128 896v128h256v-128h-256z" />
<glyph unicode="&#xe3;" d="M384 384v128h-256v-128h256zM0 0v640h512v-640h-128v256h-256v-256h-128zM0 768v128h128v-128h-128zM256 768v128h128v-128h-128zM128 896v128h128v-128h-128zM384 896v128h128v-128h-128z" />
<glyph unicode="&#xe4;" d="M384 384v128h-256v-128h256zM0 0v640h512v-640h-128v256h-256v-256h-128zM0 768v128h128v-128h-128zM384 768v128h128v-128h-128z" />
<glyph unicode="&#xe5;" d="M384 384v128h-256v-128h256zM0 0v640h512v-640h-128v256h-256v-256h-128zM128 768v128h256v-128h-256z" />
<glyph unicode="&#xe6;" horiz-adv-x="1024" d="M384 128v128h-256v-128h256zM768 384v128h-256v-128h256zM0 0v384h384v128h-256v128h768v-384h-384v-128h256v-128h-768z" />
<glyph unicode="&#xe7;" d="M256 -256v128h128v-128h-128zM384 -128v128h-384v640h512v-128h-384v-384h384v-256h-128z" />
<glyph unicode="&#xe8;" d="M0 0v640h512v-128h-384v-128h384v-128h-384v-128h384v-128h-512zM0 768v128h256v-128h-256z" />
<glyph unicode="&#xe9;" d="M0 0v640h512v-128h-384v-128h384v-128h-384v-128h384v-128h-512zM256 768v128h256v-128h-256z" />
<glyph unicode="&#xea;" d="M0 0v640h512v-128h-384v-128h384v-128h-384v-128h384v-128h-512zM0 768v128h128v-128h-128zM384 768v128h128v-128h-128zM128 896v128h256v-128h-256z" />
<glyph unicode="&#xeb;" d="M0 0v640h512v-128h-384v-128h384v-128h-384v-128h384v-128h-512zM0 768v128h128v-128h-128zM384 768v128h128v-128h-128z" />
<glyph unicode="&#xec;" horiz-adv-x="256" d="M0 0v640h128v-640h-128zM-128 768v128h256v-128h-256z" />
<glyph unicode="&#xed;" horiz-adv-x="384" d="M0 0v640h128v-640h-128zM0 768v128h256v-128h-256z" />
<glyph unicode="&#xee;" horiz-adv-x="384" d="M0 0v640h128v-640h-128zM-128 768v128h128v-128h-128zM128 768v128h128v-128h-128zM0 896v128h128v-128h-128z" />
<glyph unicode="&#xef;" horiz-adv-x="384" d="M0 0v640h128v-640h-128zM-128 768v128h128v-128h-128zM128 768v128h128v-128h-128z" />
<glyph unicode="&#xf0;" d="M384 128v256h-256v-256h256zM0 0v512h384v128h128v-640h-512zM256 640v128h128v-128h-128z" />
<glyph unicode="&#xf1;" d="M0 0v640h512v-640h-128v512h-256v-512h-128zM0 768v128h128v-128h-128zM256 768v128h128v-128h-128zM128 896v128h128v-128h-128zM384 896v128h128v-128h-128z" />
<glyph unicode="&#xf2;" d="M384 128v384h-256v-384h256zM0 0v640h512v-640h-512zM0 768v128h256v-128h-256z" />
<glyph unicode="&#xf3;" d="M384 128v384h-256v-384h256zM0 0v640h512v-640h-512zM256 768v128h256v-128h-256z" />
<glyph unicode="&#xf4;" d="M384 128v384h-256v-384h256zM0 0v640h512v-640h-512zM0 768v128h128v-128h-128zM384 768v128h128v-128h-128zM128 896v128h256v-128h-256z" />
<glyph unicode="&#xf5;" d="M384 128v384h-256v-384h256zM0 0v640h512v-640h-512zM0 768v128h128v-128h-128zM256 768v128h128v-128h-128zM128 896v128h128v-128h-128zM384 896v128h128v-128h-128z" />
<glyph unicode="&#xf6;" d="M384 128v384h-256v-384h256zM0 0v640h512v-640h-512zM0 768v128h128v-128h-128zM384 768v128h128v-128h-128z" />
<glyph unicode="&#xf7;" horiz-adv-x="768" d="M256 0v128h128v-128h-128zM0 256v128h640v-128h-640zM256 512v128h128v-128h-128z" />
<glyph unicode="&#xf8;" d="M384 128v128h-128v128h128v128h-256v-256h128v-128h128zM0 0v640h512v-640h-512z" />
<glyph unicode="&#xf9;" d="M0 0v640h128v-512h256v512h128v-640h-512zM0 768v128h256v-128h-256z" />
<glyph unicode="&#xfa;" d="M0 0v640h128v-512h256v512h128v-640h-512zM256 768v128h256v-128h-256z" />
<glyph unicode="&#xfb;" d="M0 0v640h128v-512h256v512h128v-640h-512zM0 768v128h128v-128h-128zM384 768v128h128v-128h-128zM128 896v128h256v-128h-256z" />
<glyph unicode="&#xfc;" d="M0 0v640h128v-512h256v512h128v-640h-512zM0 768v128h128v-128h-128zM384 768v128h128v-128h-128z" />
<glyph unicode="&#xfd;" d="M128 0v128h256v128h-384v384h128v-256h256v256h128v-640h-384zM0 768v128h256v-128h-256z" />
<glyph unicode="&#xfe;" d="M384 256v128h-256v-128h256zM0 0v640h128v-128h384v-384h-384v-128h-128z" />
<glyph unicode="&#xff;" d="M128 0v128h256v128h-384v384h128v-256h256v256h128v-640h-384zM0 768v128h128v-128h-128zM384 768v128h128v-128h-128z" />
<glyph unicode="&#x178;" d="M128 0v128h256v128h-384v384h128v-256h256v256h128v-640h-384zM0 768v128h128v-128h-128zM384 768v128h128v-128h-128z" />
<glyph unicode="&#x2000;" horiz-adv-x="512" />
<glyph unicode="&#x2001;" horiz-adv-x="1024" />
<glyph unicode="&#x2002;" horiz-adv-x="512" />
<glyph unicode="&#x2003;" horiz-adv-x="1024" />
<glyph unicode="&#x2004;" horiz-adv-x="341" />
<glyph unicode="&#x2005;" horiz-adv-x="256" />
<glyph unicode="&#x2006;" horiz-adv-x="170" />
<glyph unicode="&#x2007;" horiz-adv-x="170" />
<glyph unicode="&#x2008;" horiz-adv-x="128" />
<glyph unicode="&#x2009;" horiz-adv-x="204" />
<glyph unicode="&#x200a;" horiz-adv-x="56" />
<glyph unicode="&#x2010;" horiz-adv-x="512" d="M0 256v128h384v-128h-384z" />
<glyph unicode="&#x2011;" horiz-adv-x="512" d="M0 256v128h384v-128h-384z" />
<glyph unicode="&#x2012;" horiz-adv-x="512" d="M0 256v128h384v-128h-384z" />
<glyph unicode="&#x2013;" d="M0 256v128h512v-128h-512z" />
<glyph unicode="&#x2014;" horiz-adv-x="896" d="M0 256v128h768v-128h-768z" />
<glyph unicode="&#x2018;" horiz-adv-x="256" d="M0 384v256h128v-256h-128z" />
<glyph unicode="&#x2019;" horiz-adv-x="256" d="M0 384v256h128v-256h-128z" />
<glyph unicode="&#x201a;" horiz-adv-x="256" d="M0 -128v256h128v-256h-128z" />
<glyph unicode="&#x201c;" horiz-adv-x="512" d="M0 384v256h128v-256h-128zM256 384v256h128v-256h-128z" />
<glyph unicode="&#x201d;" horiz-adv-x="512" d="M0 384v256h128v-256h-128zM256 384v256h128v-256h-128z" />
<glyph unicode="&#x201e;" horiz-adv-x="512" d="M0 -128v256h128v-256h-128zM256 -128v256h128v-256h-128z" />
<glyph unicode="&#x2022;" horiz-adv-x="384" d="M0 256v256h256v-256h-256z" />
<glyph unicode="&#x2026;" horiz-adv-x="768" d="M0 0v128h128v-128h-128zM256 0v128h128v-128h-128zM512 0v128h128v-128h-128z" />
<glyph unicode="&#x202f;" horiz-adv-x="204" />
<glyph unicode="&#x2039;" horiz-adv-x="384" d="M128 0v128h128v-128h-128zM0 128v128h128v-128h-128zM128 256v128h128v-128h-128z" />
<glyph unicode="&#x203a;" horiz-adv-x="384" d="M0 0v128h128v-128h-128zM128 128v128h128v-128h-128zM0 256v128h128v-128h-128z" />
<glyph unicode="&#x205f;" horiz-adv-x="256" />
<glyph unicode="&#x20ac;" d="M256 256v128h256v-128h-256zM0 0v640h512v-128h-384v-384h384v-128h-512z" />
<glyph unicode="&#x2122;" horiz-adv-x="1280" d="M128 256v256h-128v128h384v-128h-128v-256h-128zM512 256v384h640v-384h-128v256h-128v-128h-128v128h-128v-256h-128z" />
<glyph unicode="&#x25fc;" d="M0 640h640v-640h-640v640z" />
<glyph unicode="&#xfb01;" d="M0 0v512h128v-128h384v-384h-128v256h-256v-256h-128zM128 512v128h128v-128h-128zM384 512v128h128v-128h-128z" />
<glyph unicode="&#xfb02;" d="M128 512v128h128v-128h-128zM0 0v512h128v-128h256v256h128v-640h-128v256h-256v-256h-128z" />
</font>
</defs>
</svg>
