<?xml version="1.0" encoding="UTF-8" standalone="no"?>
<svg
   xmlns:dc="http://purl.org/dc/elements/1.1/"
   xmlns:cc="http://creativecommons.org/ns#"
   xmlns:rdf="http://www.w3.org/1999/02/22-rdf-syntax-ns#"
   xmlns:svg="http://www.w3.org/2000/svg"
   xmlns="http://www.w3.org/2000/svg"
   version="1.1"
   id="svg2"
   viewBox="0 0 300 300"
   height="300"
   width="300">
  <defs
     id="defs4" />
  <metadata
     id="metadata7">
    <rdf:RDF>
      <cc:Work
         rdf:about="">
        <dc:format>image/svg+xml</dc:format>
        <dc:type
           rdf:resource="http://purl.org/dc/dcmitype/StillImage" />
        <dc:title></dc:title>
      </cc:Work>
    </rdf:RDF>
  </metadata>
  <g
     transform="translate(0,-752.36216)"
     id="layer1">
    <path
       id="path4147"
       d=""
       style="fill:#000000" />
    <path
       id="path4228"
       d="m 78.266098,1052.3533 c -10.05953,-0.037 -14.99252,-10.3665 -22.01743,-16.0349 -18.301579,-18.3903 -36.785465,-36.60769 -54.9726698,-55.10649 -2.520722,-1.9298 -0.40458,-8.4966 -1.101912,-12.2498 0,-15.1403 0,-30.2806 0,-45.4208 4.713979,2.6638 8.312721,8.0198 12.5976238,11.7194 21.233352,21.081 42.128428,42.5356 63.667888,63.2831 5.78984,1.99729 9.00785,-4.8847 12.88578,-7.9538 3.39049,-6.206 -4.57895,-9.9863 -7.8173,-14.1328 -23.55106,-23.379 -46.792993,-47.3036 -70.567732,-70.3039 -4.0925628,-4.8114 -8.4525088,4.4267 -10.7662598,2.6441 0,-18.9249 0,-37.8498 0,-56.77473 4.201537,-1.73605 7.070555,-6.68898 10.7517828,-9.68114 29.157769,-29.01043 58.051689,-58.35012 87.374099,-87.15509 7.016492,-5.39583 17.364242,-2.57156 22.325282,4.3412 18.84451,19.04722 38.15497,37.71875 56.71075,56.99868 -3.12737,8.08419 -14.10278,14.59816 -20.01586,22.06469 -13.77363,14.10849 -28.19149,27.67489 -41.54818,42.13659 -4.10554,6.6262 -1.63132,16.0019 4.85085,20.316 18.8318,19.1935 38.37223,37.8964 56.87663,57.3171 -3.26947,8.188 -13.98911,14.2983 -19.75116,21.7356 -22.93965,22.84739 -45.6461,45.94769 -68.797102,68.57169 -2.81854,2.8982 -6.74523,3.7954 -10.68508,3.6853 z m 28.887612,-81.66329 c 5.08997,-1.4704 9.22323,-6.6874 11.86747,-11.234 -3.14894,-7.486 -10.92073,-11.8541 -16.03909,-18.0421 -21.130482,-21.1552 -42.312772,-42.2632 -63.410354,-63.4482 -5.508852,-4.3035 -9.938985,3.737 -13.464922,6.8897 -4.724872,6.1514 5.235021,10.8254 8.320922,15.1756 23.292642,23.1171 46.248522,46.5955 69.742084,69.4924 0.96589,0.5753 1.77424,1.4254 2.98389,1.1666 z m 85.05135,-26.3303 c -10.09151,-8.3452 -19.03396,-18.7842 -28.68137,-27.9334 -9.02102,-9.393 -18.95033,-18.2265 -27.43627,-27.947 0.66135,-3.6464 5.90079,-6.3118 8.31123,-9.5835 15.65232,-15.4225 30.90736,-31.37909 46.80735,-46.46865 3.42898,0.0613 4.5593,6.47039 6.35061,9.34103 3.75958,10.83612 1.63499,22.64932 2.21394,33.98472 -0.16146,16.6228 0.43278,33.309 -0.20588,49.8919 -0.87465,6.7725 -3.10196,13.5404 -7.35961,18.7149 z"
       style="fill:#000000;fill-opacity:0.5" />
  </g>
</svg>
