<?xml version="1.0" encoding="UTF-8" standalone="no"?>
<svg
   xmlns:dc="http://purl.org/dc/elements/1.1/"
   xmlns:cc="http://creativecommons.org/ns#"
   xmlns:rdf="http://www.w3.org/1999/02/22-rdf-syntax-ns#"
   xmlns:svg="http://www.w3.org/2000/svg"
   xmlns="http://www.w3.org/2000/svg"
   version="1.1"
   id="svg2"
   viewBox="0 0 300 300"
   height="300"
   width="300">
  <defs
     id="defs4" />
  <metadata
     id="metadata7">
    <rdf:RDF>
      <cc:Work
         rdf:about="">
        <dc:format>image/svg+xml</dc:format>
        <dc:type
           rdf:resource="http://purl.org/dc/dcmitype/StillImage" />
        <dc:title></dc:title>
      </cc:Work>
    </rdf:RDF>
  </metadata>
  <g
     transform="translate(0,-752.36216)"
     id="layer1">
    <path
       id="path4147"
       d=""
       style="fill:#000000" />
    <path
       id="path4384"
       d="m 92.068415,1052.3621 c -6.08294,0.018 -11.14369,-3.0716 -14.81038,-7.3554 -6.94113,-6.973 -13.91183,-13.943 -20.92338,-20.9234 -6.9396,-6.9715 -13.91397,-13.9461 -20.92339,-20.9234 -6.93996,-6.97204 -13.91351,-13.94524 -20.92338,-20.92334 -4.31352,-4.5057 -8.9736299,-8.6886 -13.1681599,-13.4022 -2.60585,-1.8871 -0.41933003,-8.5667 -1.13970003,-12.3393 0.69513,-3.6702 -1.36080997,-10.3716 0.96463003,-12.2456 7.54133,7.9645 15.6196299,15.8356 23.5921299,23.8377 12.93592,12.9607 25.88847,25.9133 38.85772,38.85774 8.96451,8.9697 17.91198,17.9762 26.93094,26.9015 4.87919,1.6793 8.20928,-7.6072 12.694205,-9.8231 -1.85604,-4.9229 -7.392595,-7.9017 -10.695965,-12.0464 -30.5503,-30.50374 -60.98167,-61.13324 -91.59866993,-91.56514 -1.75074,-2.7729 -0.23931,-8.8079 -0.74499,-12.8259 0,-31.9919 0,-63.9838 0,-95.9757 4.92881003,-2.7994 8.69917003,-8.3955 13.18240993,-12.2705 15.23553,-14.9852 29.94062,-30.588 45.65719,-45.0232 6.79486,-3.3534 16.20836,-2.5447 21.17897,3.6221 48.617085,48.7431 97.498575,97.2493 145.953585,146.1371 4.95836,6.8505 3.99447,17.7213 -2.42814,23.2971 -40.46336,40.2637 -80.60732,81.05824 -121.29293,120.97064 -2.686825,2.5387 -6.765785,3.5829 -10.362695,4.0187 z m -18.61439,-92.36264 c 5.96803,-0.026 11.92947,-1.3999 17.58682,-2.9462 6.33864,-2.8014 12.618965,-6.1858 17.501375,-11.384 4.66884,-4.1006 8.87836,-9.8362 11.51825,-15.5946 4.02724,-7.9502 4.91753,-17.1265 4.38694,-26.0712 -0.26529,-9.2944 -4.19597,-18.0384 -9.22909,-25.6074 -4.78225,-5.3599 -9.52611,-10.9794 -15.911225,-14.1631 -6.60122,-4.4334 -14.68907,-6.5496 -22.78287,-7.1859 -7.82715,-0.3419 -15.66374,0.7421 -22.7501,3.797 -8.10846,3.3288 -15.49023,8.8239 -20.93771,16.0712 -3.56417,4.1688 -6.3197,9.1586 -8.05766,14.3203 -3.34006,9.2417 -3.14154,19.7623 -1.55882,29.4751 1.89731,6.8446 5.06679,13.8476 9.69022,19.4459 5.28092,5.7404 10.90073,11.5786 18.44336,14.7401 6.66298,3.5667 14.51054,4.9278 22.10051,5.1028 z m -0.34106,-17.7938 c -13.26254,0.994 -25.71635,-8.0264 -30.90004,-19.632 -5.14327,-11.3481 -3.80515,-26.1152 4.59684,-35.5448 4.13057,-5.7776 10.61063,-9.5495 17.41076,-11.6119 6.3011,-1.464 12.09425,-1.4278 18.38355,-0.03 8.05453,2.3044 15.39517,8.1335 19.726905,14.8855 6.28,9.628 6.9226,23.081 1.65318,33.2936 -3.79136,7.7094 -10.702735,13.8147 -18.519605,16.9393 -3.99171,1.5697 -8.04646,1.9356 -12.35159,1.6998 z m -11.61013,-41.8301 c 4.07932,-1.0861 6.96376,-5.5511 11.83431,-4.5717 5.33462,-1.4845 8.38237,4.2743 13.0329,4.5811 4.09027,-1.3803 4.36181,-6.4126 0.89916,-8.4336 -6.3508,-5.9556 -17.2687,-7.031 -24.80471,-2.1256 -3.11088,1.6659 -7.89391,6.4531 -3.42579,9.5367 0.78058,0.393 1.48434,1.2478 2.46413,1.0131 z m 126.656175,37.5206 c 4.95304,-2.2953 8.34553,-8.2201 12.79371,-11.7843 2.61304,-4.4611 11.81403,-8.1024 10.40403,-13.0969 -7.57189,-7.6823 -15.02912,-14.8665 -22.4043,-22.3779 -6.86592,-6.8324 -13.62046,-13.5896 -20.4551,-20.4551 -6.61412,-6.5562 -13.24531,-13.2654 -19.86212,-19.824 -4.80232,-4.7466 -9.27069,-9.4841 -14.29209,-14.1499 -6.18657,1.4237 -12.15323,4.5656 -18.41196,5.582 -19.782695,-19.8359 -39.725715,-39.5396 -59.378125,-59.4976 -3.62162,-0.9026 -5.21673,3.9921 -7.93287,5.7041 -2.14215,2.5218 -7.6871,5.5131 -2.50058,8.2888 46.95279,47.1572 94.140305,94.081 141.100525,141.2313 l 0.29891,0.3779 0.63997,0 0,1e-4 z m -78.12077,-114.7941 c 3.82109,-3.6849 8.00953,-7.3804 11.34796,-11.5895 -4.58924,-5.6073 -10.33794,-10.2049 -15.11623,-15.6848 -6.494405,-6.0599 -12.642645,-12.5581 -18.945385,-18.7748 -2.81325,-3.1247 -5.14168,2.3149 -7.26886,3.6884 -1.66146,2.7346 -8.41362,5.4374 -4.73325,8.8314 9.46943,9.0912 18.62351,18.5704 27.972055,27.8104 2.29087,1.7937 3.80394,4.9148 6.74371,5.7189 z"
       style="fill:#000000;fill-opacity:0.5" />
  </g>
</svg>
