<?xml version="1.0" standalone="no"?>
<!DOCTYPE svg PUBLIC "-//W3C//DTD SVG 20010904//EN"
 "http://www.w3.org/TR/2001/REC-SVG-20010904/DTD/svg10.dtd">
<svg version="1.0" xmlns="http://www.w3.org/2000/svg"
 width="560.000000pt" height="560.000000pt" viewBox="0 0 560.000000 560.000000"
 preserveAspectRatio="xMidYMid meet">
<metadata>
Created by potrace 1.11, written by Peter Selinger 2001-2013
</metadata>
<g transform="translate(0.000000,560.000000) scale(0.100000,-0.100000)"
fill="#000000" stroke="none">
<path d="M2095 4560 c-191 -17 -400 -74 -582 -160 -350 -165 -581 -419 -665
-728 -28 -103 -30 -342 -5 -446 90 -360 345 -574 792 -663 127 -25 472 -25
600 0 144 28 237 61 318 110 60 37 88 31 110 -20 41 -94 42 -113 42 -843 0
-751 -1 -741 48 -759 142 -54 569 25 952 176 588 231 978 595 1086 1011 29
112 35 285 15 401 -91 518 -655 881 -1557 1001 -200 27 -551 37 -719 21 -293
-28 -450 -91 -450 -180 0 -38 40 -111 73 -135 42 -31 171 -34 317 -7 190 35
226 27 223 -48 -5 -122 -215 -404 -364 -488 -216 -123 -547 -116 -885 18 -136
54 -206 106 -267 195 -205 302 -131 769 156 980 144 106 264 145 457 145 175
1 294 -21 715 -130 318 -83 417 -80 445 16 9 30 8 52 -4 106 -24 104 -63 174
-133 243 -106 105 -258 164 -472 184 -115 11 -113 11 -246 0z m1350 -1216
c251 -30 440 -79 536 -138 103 -63 105 -122 5 -222 -84 -84 -202 -159 -408
-259 -248 -119 -536 -221 -605 -213 -51 6 -57 45 -58 368 0 379 17 473 87 483
54 8 314 -3 443 -19z m888 -496 c97 -49 168 -149 187 -263 23 -142 -51 -378
-169 -535 -59 -78 -192 -210 -291 -289 -292 -233 -701 -442 -970 -497 -94 -19
-144 -13 -162 19 -20 34 -16 427 6 607 25 206 54 373 69 387 6 7 129 61 272
121 362 152 492 213 705 332 307 171 272 159 353 118z"/>
</g>
</svg>
