<?xml version="1.0" encoding="UTF-8" standalone="no"?>
<svg
   xmlns:dc="http://purl.org/dc/elements/1.1/"
   xmlns:cc="http://creativecommons.org/ns#"
   xmlns:rdf="http://www.w3.org/1999/02/22-rdf-syntax-ns#"
   xmlns:svg="http://www.w3.org/2000/svg"
   xmlns="http://www.w3.org/2000/svg"
   xml:space="preserve"
   viewBox="0 0 511.99999 511.99999"
   height="512"
   width="512"
   y="0px"
   x="0px"
   id="Capa_1"
   version="1.1"><metadata
     id="metadata41"><rdf:RDF><cc:Work
         rdf:about=""><dc:format>image/svg+xml</dc:format><dc:type
           rdf:resource="http://purl.org/dc/dcmitype/StillImage" /><dc:title></dc:title></cc:Work></rdf:RDF></metadata><defs
     id="defs39" /><g
     transform="translate(0,73.450989)"
     id="g3"><path
       style="fill:#ffffff;fill-opacity:1"
       id="path5"
       d="M 477.65932,51.880257 C 454.76709,11.673599 423.71524,-20.15807 384.4956,-43.621927 c -39.22548,-23.465055 -82.048,-35.19459 -128.49793,-35.19459 -46.4441,0 -89.28064,11.733126 -128.49794,35.19459 C 88.276587,-20.159266 57.225906,11.673599 34.333675,51.880257 11.444948,92.085719 0,135.9904 0,183.59309 c 0,57.18163 16.274872,108.60083 48.832788,154.27073 32.554414,45.67351 74.609902,77.27779 126.162952,94.81644 6.00092,1.14172 10.44323,0.33869 13.33161,-2.38875 2.88955,-2.73103 4.33258,-6.15139 4.33258,-10.24673 0,-0.68336 -0.0572,-6.83116 -0.16812,-18.4506 -0.11442,-11.61943 -0.16812,-21.75607 -0.16812,-30.40512 l -7.66694,1.35953 c -4.8883,0.91792 -11.055,1.30687 -18.50011,1.19677 -7.44161,-0.10651 -15.16692,-0.90595 -23.16543,-2.39234 -8.002,-1.47323 -15.44478,-4.89 -22.33417,-10.24315 -6.88588,-5.35315 -11.77418,-12.36023 -14.66373,-21.01048 l -3.33319,-7.86278 c -2.22174,-5.23467 -5.719557,-11.04976 -10.498112,-17.42376 -4.778554,-6.37997 -9.610814,-10.70509 -14.499113,-12.98255 l -2.333821,-1.71258 c -1.555103,-1.13813 -2.998126,-2.51081 -4.332572,-4.10372 -1.333279,-1.59289 -2.331486,-3.187 -2.998126,-4.78348 -0.667806,-1.59769 -0.114414,-2.90816 1.666015,-3.93618 1.780429,-1.02802 4.998043,-1.52708 9.666854,-1.52708 l 6.664058,1.02085 c 4.444651,0.91313 9.942382,3.64057 16.500197,8.19906 6.55431,4.5549 11.9423,10.47653 16.16513,17.76245 5.11362,9.34198 11.27449,16.46037 18.50011,21.35874 7.21979,4.89838 14.49912,7.34338 21.83098,7.34338 7.33187,0 13.66436,-0.56967 18.99981,-1.703 5.32961,-1.13933 10.32999,-2.8519 14.9988,-5.12816 1.99992,-15.26838 7.44511,-26.99791 16.33091,-35.19698 -12.66498,-1.36432 -24.05155,-3.41917 -34.16556,-6.1514 -10.10816,-2.73581 -20.55374,-7.17583 -31.32971,-13.33201 -10.78181,-6.1478 -19.72599,-13.78199 -26.83486,-22.8894 -7.11004,-9.11221 -12.94518,-21.07511 -17.497237,-35.87795 -4.554396,-14.80883 -6.832177,-31.89151 -6.832177,-51.25283 0,-27.56759 8.779554,-51.02666 26.335174,-70.390382 -8.22383,-20.725653 -7.44745,-43.95973 2.33148,-69.699843 6.44457,-2.05246 16.00168,-0.512218 28.66666,4.611152 12.66732,5.125763 21.94189,9.516708 27.83307,13.15728 5.89117,3.639376 10.61135,6.72345 14.16754,9.224698 20.67049,-5.920417 42.00178,-8.881225 63.99971,-8.881225 21.99793,0 43.33389,2.960808 64.00555,8.881225 l 12.66614,-8.196673 c 8.66164,-5.469235 18.89006,-10.481305 30.66074,-15.037405 11.77768,-4.553707 20.78374,-5.807921 27.00882,-3.755462 9.99608,25.74131 10.88688,48.97419 2.66072,69.699841 17.55444,19.363724 26.3375,42.828774 26.3375,70.390374 0,19.36133 -2.28595,36.49787 -6.83334,51.42039 -4.55323,14.9249 -10.43857,26.87584 -17.65836,35.87795 -7.22795,9.00089 -16.22934,16.57524 -27.00531,22.72186 -10.77831,6.15139 -21.22738,10.5914 -31.33555,13.32721 -10.11284,2.73583 -21.49941,4.79187 -34.16439,6.15858 11.55119,10.24674 17.32795,26.42107 17.32795,48.51583 l 0,72.08979 c 0,4.09534 1.38932,7.51451 4.17029,10.24673 2.77747,2.72744 7.16375,3.53047 13.16467,2.38756 51.56006,-17.53626 93.61554,-49.14174 126.16879,-94.81524 C 495.71929,292.18434 512,240.76515 512,183.58352 511.98833,135.98681 500.53754,92.085719 477.65932,51.880257 Z" /></g><g
     transform="translate(0,73.450989)"
     id="g7" /><g
     transform="translate(0,73.450989)"
     id="g9" /><g
     transform="translate(0,73.450989)"
     id="g11" /><g
     transform="translate(0,73.450989)"
     id="g13" /><g
     transform="translate(0,73.450989)"
     id="g15" /><g
     transform="translate(0,73.450989)"
     id="g17" /><g
     transform="translate(0,73.450989)"
     id="g19" /><g
     transform="translate(0,73.450989)"
     id="g21" /><g
     transform="translate(0,73.450989)"
     id="g23" /><g
     transform="translate(0,73.450989)"
     id="g25" /><g
     transform="translate(0,73.450989)"
     id="g27" /><g
     transform="translate(0,73.450989)"
     id="g29" /><g
     transform="translate(0,73.450989)"
     id="g31" /><g
     transform="translate(0,73.450989)"
     id="g33" /><g
     transform="translate(0,73.450989)"
     id="g35" /></svg>