<?xml version="1.0" encoding="UTF-8" standalone="no"?>
<svg
   xmlns:dc="http://purl.org/dc/elements/1.1/"
   xmlns:cc="http://creativecommons.org/ns#"
   xmlns:rdf="http://www.w3.org/1999/02/22-rdf-syntax-ns#"
   xmlns:svg="http://www.w3.org/2000/svg"
   xmlns="http://www.w3.org/2000/svg"
   id="svg2"
   xml:space="preserve"
   enable-background="new 0 0 256 256"
   viewBox="0 0 512 512"
   height="512"
   width="512"
   y="0px"
   x="0px"
   version="1.1"><metadata
     id="metadata14"><rdf:RDF><cc:Work
         rdf:about=""><dc:format>image/svg+xml</dc:format><dc:type
           rdf:resource="http://purl.org/dc/dcmitype/StillImage" /><dc:title></dc:title></cc:Work></rdf:RDF></metadata><defs
     id="defs4" /><rect
     style="fill:#017bb6"
     y="-7.4505806e-09"
     x="0"
     id="rect6"
     height="512"
     width="512" /><path
     style="fill:#ffffff"
     id="path8"
     d="m 87.605134,197.6543 72.238006,0 0,232.07422 -72.238006,0 0,-232.07422 z M 123.7505,82.28516 c 23.09562,0 41.82504,18.7539 41.82504,41.81348 0,23.08202 -18.72942,41.83202 -41.82504,41.83202 -23.18155,0 -41.86507,-18.75 -41.86507,-41.83202 0,-23.05958 18.68352,-41.81348 41.86507,-41.81348" /><path
     style="fill:#ffffff"
     id="path10"
     d="m 205.13204,197.6543 69.17941,0 0,31.71874 0.98242,0 c 9.62106,-18.25878 33.17955,-37.4873 68.29076,-37.4873 73.0212,0 86.53091,48.04298 86.53091,110.5459 l 0,127.29688 -72.10715,0 0,-112.83204 c 0,-26.9375 -0.53123,-61.56152 -37.51157,-61.56152 -37.5604,0 -43.28498,29.31544 -43.28498,59.56934 l 0,114.82422 -72.0798,0 0,-232.07422 z" /></svg>