<?xml version="1.0" encoding="UTF-8" standalone="no"?>
<svg
   xmlns:dc="http://purl.org/dc/elements/1.1/"
   xmlns:cc="http://creativecommons.org/ns#"
   xmlns:rdf="http://www.w3.org/1999/02/22-rdf-syntax-ns#"
   xmlns:svg="http://www.w3.org/2000/svg"
   xmlns="http://www.w3.org/2000/svg"
   version="1.1"
   id="svg2"
   viewBox="0 0 300 300"
   height="300"
   width="300">
  <defs
     id="defs4" />
  <metadata
     id="metadata7">
    <rdf:RDF>
      <cc:Work
         rdf:about="">
        <dc:format>image/svg+xml</dc:format>
        <dc:type
           rdf:resource="http://purl.org/dc/dcmitype/StillImage" />
        <dc:title></dc:title>
      </cc:Work>
    </rdf:RDF>
  </metadata>
  <g
     transform="translate(0,-752.36216)"
     id="layer1">
    <path
       id="path4147"
       d=""
       style="fill:#000000" />
    <path
       id="path4436"
       d="m 114.07243,1052.3083 c -13.50427,1.0044 -20.457946,-12.2605 -29.448406,-19.8974 -27.83203,-27.7722 -55.624961,-55.58345 -83.4346278,-83.37805 -2.36402,-2.3097 -0.35659899,-8.991 -1.02221299,-12.9991 0,-40.0942 0,-80.1883 0,-120.2825 5.03760799,3.0865 9.28239399,9.1861 14.07125879,13.3246 16.422947,16.2963 32.6469,32.8985 49.192192,49.0061 -0.17713,4.2689 -5.60519,6.3533 -7.91035,9.737 -4.07311,4.9825 -13.044327,9.8323 -10.222876,17.2572 3.544085,6.8249 10.057536,11.124 14.994306,16.7119 7.23739,7.1633 14.39001,14.5334 21.67666,21.5766 5.59113,4.4977 12.49229,0.4312 15.94652,-4.5175 4.415276,-3.7993 8.059186,-8.6559 12.671576,-12.0835 5.72842,2.5608 10.1656,9.7329 15.39151,14.0444 18.03223,18.2109 36.39796,36.111 54.25093,54.4869 -2.40833,5.57515 -8.72197,8.98505 -12.52814,13.78885 -13.28956,13.005 -26.21867,26.8146 -39.77107,39.2787 -4.20883,2.5493 -8.72214,4.3244 -13.85727,3.9458 z m 76.4125,-67.37695 C 128.80721,923.60315 67.483314,861.88985 5.8510082,800.51105 c -1.645714,-3.9587 5.1786178,-6.414 7.0056198,-9.626 11.908858,-11.6411 23.268591,-23.9752 35.664261,-35.0185 6.107625,-3.7397 14.143275,-4.6676 20.840695,-1.9003 9.26817,3.3044 14.91828,12.8367 22.30869,19.095 7.56645,7.1907 14.534006,15.2793 22.468986,21.9205 3.54752,-1.3613 6.09261,-5.9466 9.4246,-8.391 5.1628,-5.1738 10.47223,-12.6687 18.82785,-11.198 7.23966,-0.1671 10.92754,6.771 15.5896,10.7407 6.50216,6.4391 12.83475,12.8566 19.33425,19.2922 6.55147,6.5867 13.14125,13.177 19.76983,19.7698 5.02651,5.2447 10.54541,10.2127 15.36124,15.6448 4.18604,6.3818 2.69083,15.9742 -3.71727,20.5 -4.1018,4.9812 -10.22982,9.1023 -13.49987,14.4121 3.15866,5.3437 9.22405,9.3979 13.41227,14.2804 8.76797,9.6446 19.85728,17.8846 26.89365,28.6901 2.18681,5.5621 2.73902,12.3091 0.95158,18.0501 -4.30602,10.7499 -15.10137,17.4519 -22.65662,26.1811 -7.50158,7.1012 -14.50177,15.2786 -22.29207,21.7497 l -1.05337,0.2275 0,10e-5 z m -9.36388,-123.4092 c 4.64087,-2.7156 7.74926,-7.5641 11.94531,-10.9875 0.99861,-3.899 -4.36409,-5.6425 -6.18471,-8.5447 -6.46711,-6.5035 -12.86925,-12.9057 -19.37285,-19.3728 -6.1254,-6.1606 -12.3597,-12.396 -18.51885,-18.5181 -2.66938,-2.5249 -5.06557,-5.4821 -7.92306,-7.6231 -4.04606,3.7981 -10.68891,8.0348 -12.57025,13.278 17.28069,17.3856 34.47752,34.9325 52.10845,51.932 l 0.51669,-0.1638 0,0 z m -93.641696,66.7499 c -3.66029,-1.7378 -6.37135,-6.2597 -9.71559,-8.9763 -5.40716,-5.4708 -10.96384,-10.878 -16.30591,-16.363 3.05873,-4.9849 8.2906,-8.5999 12.20621,-13.0446 5.22644,1.3893 8.44474,8.4044 13.06375,11.6771 4.26434,5.0528 10.62815,9.1019 13.681486,14.7249 -4.114956,3.8703 -8.038826,7.8654 -12.019256,11.9794 l -0.76465,0 -0.14604,4e-4 0,0 z"
       style="fill:#000000;fill-opacity:0.5" />
  </g>
</svg>
