<?xml version="1.0" encoding="UTF-8" standalone="no"?>
<svg
   xmlns:dc="http://purl.org/dc/elements/1.1/"
   xmlns:cc="http://creativecommons.org/ns#"
   xmlns:rdf="http://www.w3.org/1999/02/22-rdf-syntax-ns#"
   xmlns:svg="http://www.w3.org/2000/svg"
   xmlns="http://www.w3.org/2000/svg"
   version="1.1"
   id="svg2"
   viewBox="0 0 300 300"
   height="300"
   width="300">
  <defs
     id="defs4" />
  <metadata
     id="metadata7">
    <rdf:RDF>
      <cc:Work
         rdf:about="">
        <dc:format>image/svg+xml</dc:format>
        <dc:type
           rdf:resource="http://purl.org/dc/dcmitype/StillImage" />
        <dc:title></dc:title>
      </cc:Work>
    </rdf:RDF>
  </metadata>
  <g
     transform="translate(0,-752.36216)"
     id="layer1">
    <path
       id="path4147"
       d=""
       style="fill:#000000" />
    <path
       id="path4176"
       d="m 96.260175,1052.2852 c -8.72175,0.6512 -15.44509,-5.3238 -20.37307,-11.2727 -6.3318,-5.8722 -12.29067,-12.2003 -18.4207,-18.2414 -6.75261,-6.6905 -13.34123,-13.3618 -20.09057,-20.0496 -6.27389,-6.30706 -12.58349,-12.61867 -18.93178,-18.93101 -5.60378,-5.8097 -11.5745598,-11.27302 -17.0535298,-17.30123 -2.74048,-1.92435 -0.45006997,-8.87952 -1.20301997,-12.7914 0,-51.05554 0,-102.11109 0,-153.16663 4.54439997,-2.31082 7.87289997,-7.55712 11.95241977,-10.99022 1.285,5.65682 0.93515,11.7703 2.24805,17.53704 2.38512,10.62276 3.95632,21.30689 6.14967,32.02422 1.17649,7.0644 2.73076,14.05448 3.7144,21.23037 1.96234,7.23722 2.61753,15.6495 4.16833,23.28203 2.35932,11.83034 2.9054,24.251 7.81828,35.33154 3.18995,9.20263 9.58552,17.77843 18.37425,21.9889 6.06254,3.23546 12.6207,5.29032 19.32496,7.09661 5.08027,1.16895 10.41156,1.27239 15.41391,2.73532 9.76906,0.94685 19.237655,3.1175 28.835215,4.93016 14.03047,2.19257 27.93385,4.92213 41.88432,7.63491 9.05547,1.342 17.83633,4.25353 27.18273,3.7651 8.91885,-0.76432 -3.70161,6.91666 -5.34808,9.88246 -23.86123,23.80143 -47.85333,47.98503 -71.65047,71.53283 -4.3056,2.4381 -8.77659,4.2512 -13.995315,3.7727 z M 189.10616,948.92779 c -11.54857,0.0259 -22.76446,-3.50669 -34.16122,-4.98682 -6.31118,-1.7047 -13.22446,-1.7698 -19.46661,-3.80485 -8.60769,-1.22435 -16.90524,-2.91885 -25.41462,-4.46179 -8.84781,-1.20559 -17.314105,-3.27408 -26.108415,-4.3516 -6.1148,-1.56269 -12.66706,-2.24403 -18.4164,-4.97582 -9.34999,-3.7663 -13.85474,-13.68893 -15.07362,-23.35397 -2.3585,-6.84151 -2.43826,-14.42676 -4.09711,-21.4903 -1.29756,-7.9793 -2.74622,-15.9136 -4.21168,-23.94307 -1.25673,-8.57963 -3.34988,-16.89808 -4.41564,-25.55627 -1.99174,-6.80882 -2.33708,-14.19911 -4.04945,-21.01157 -2.37655,-10.97791 -2.77292,-22.60945 -0.9254,-33.6497 1.4375,-8.927 6.44081,-17.44551 14.77891,-21.67234 7.3537,-4.60633 18.24842,-4.65442 24.6971,1.46241 32.930385,31.95053 64.999615,64.85464 97.596645,97.1743 17.94918,18.26101 36.58504,35.92079 54.04133,54.61384 3.64473,5.65167 4.60991,13.56168 2.57646,20.14477 -2.48003,7.12766 -8.62883,12.21891 -15.00141,15.41275 -6.83691,3.03899 -14.79009,4.32512 -22.34887,4.45003 z"
       style="fill:#000000;fill-opacity:0.5" />
  </g>
</svg>
