<?xml version="1.0" encoding="UTF-8" standalone="no"?>
<svg
   xmlns:dc="http://purl.org/dc/elements/1.1/"
   xmlns:cc="http://creativecommons.org/ns#"
   xmlns:rdf="http://www.w3.org/1999/02/22-rdf-syntax-ns#"
   xmlns:svg="http://www.w3.org/2000/svg"
   xmlns="http://www.w3.org/2000/svg"
   version="1.1"
   id="svg2"
   viewBox="0 0 300 300"
   height="300"
   width="300">
  <defs
     id="defs4" />
  <metadata
     id="metadata7">
    <rdf:RDF>
      <cc:Work
         rdf:about="">
        <dc:format>image/svg+xml</dc:format>
        <dc:type
           rdf:resource="http://purl.org/dc/dcmitype/StillImage" />
        <dc:title></dc:title>
      </cc:Work>
    </rdf:RDF>
  </metadata>
  <g
     transform="translate(0,-752.36216)"
     id="layer1">
    <path
       id="path4147"
       d=""
       style="fill:#000000" />
    <path
       id="path4332"
       d="m 109.26636,1052.3103 c -12.93341,0.9638 -19.59095,-11.7416 -28.2006,-19.0543 -26.65257,-26.5954 -53.26798,-53.22809 -79.8992005,-79.84489 -2.27002,-2.3194 -0.33715998,-8.8416 -0.97889998,-12.7892 0.69874,-3.8342 -1.38758002,-10.737 1.01828998,-12.6903 6.02688,6.4843 12.5185105,12.5001 18.5956005,18.848 12.59801,12.6402 25.22501,25.2536 37.86262,37.8695 12.60383,12.63 25.22524,25.25149 37.86423,37.86419 4.88485,4.0282 8.2879,10.5423 14.75476,12.1481 7.44938,-4.6784 13.0072,-12.5425 19.72237,-18.5065 21.91218,-21.99999 44.00355,-43.82689 65.8024,-65.93639 3.05902,-7.4575 -6.43711,-11.2044 -10.06487,-16.287 -45.81938,-45.6803 -91.36946,-91.648 -137.35739,-137.1483 -6.13033,-2.8038 -9.26368,4.8296 -13.40308,7.6235 -10.1663,10.5452 -20.695,20.748 -30.9900705,31.152 -3.82751998,5.7666 -4.36572998,0.9158 -3.80485998,-3.7593 0,-6.2145 0,-12.4291 0,-18.6437 4.86803998,-2.6244 8.51641998,-8.1932 12.91454048,-11.952 15.52725,-15.1571 30.3207,-31.2562 46.46818,-45.6332 6.06214,-4.1293 14.68111,-3.9715 21.4366,-1.2364 11.30007,8.1732 20.20788,19.4687 30.47162,28.9843 41.58179,41.687 83.38479,83.1611 124.8083,125.0002 4.48844,5.8458 4.94984,14.295 2.68089,21.3721 -4.62014,10.1194 -14.82822,16.6698 -22.18609,25.0614 -30.99691,30.7785 -61.65084,62.11889 -92.87748,92.53069 -3.90155,3.4337 -9.26847,5.3071 -14.63786,5.0275 z m 0.49525,-43.5352 c -6.85491,-2.1129 -10.53807,-9.47819 -16.04263,-13.82339 -23.11648,-23.1037 -46.68182,-46.6952 -69.13605,-69.1583 -4.70911,-5.1396 -10.39924,-9.5153 -14.46347,-15.1644 -1.6393305,-5.0754 3.87495,-8.3468 6.96401,-11.318 5.4698,-3.8035 9.55902,3.9139 13.32136,6.9482 29.70701,30.005 60.04481,59.4439 89.35183,89.8076 1.50613,5.26209 -4.12646,8.18789 -6.96063,11.45859 -1.09246,0.2126 -2.02829,0.8166 -3.03442,1.2497 z m 25.39432,-25.75669 c -5.85414,-0.9725 -8.85604,-7.2143 -13.32944,-10.7535 -28.11374,-28.1443 -56.87221,-56.8101 -85.19451,-85.2605 -4.1815,-5.0764 2.03051,-9.5846 5.3641,-12.8688 5.78483,-4.7926 10.24581,3.7922 14.26385,6.9987 29.53722,29.7196 59.45324,59.0859 88.74976,89.0303 2.24983,5.6176 -3.95935,8.3218 -6.69648,12.0522 -1.05209,0.2686 -2.10342,0.5401 -3.15728,0.8016 z m 25.71806,-25.6068 c -8.89422,-2.9189 -14.24552,-12.9632 -21.5545,-18.9237 -25.65758,-25.6528 -51.30757,-51.3172 -76.96995,-76.9626 -4.83056,-4.864 1.98033,-9.8585 5.37591,-12.9265 5.2315,-4.258 9.7897,2.6612 13.17844,5.977 29.379,29.2228 58.65156,58.6018 87.93735,87.8854 3.55178,2.9803 1.9088,8.6335 -1.73544,10.8098 -1.89829,1.6134 -3.26803,4.4024 -6.23181,4.1406 z M 0.60364952,889.67301 c -0.9709,-3.4275 -0.13014,-8.6667 -0.41599,-12.7792 5.20761998,1.2581 6.73826998,9.4009 1.44580998,12.1614 -0.42929,0 -0.45835,0.9603 -1.02981998,0.6178 z M 20.34358,868.40761 c -4.5009,-0.9538 -8.04354,-5.1251 -10.29514,-8.9205 -1.6113405,-5.5735 5.33339,-9.0807 8.66232,-12.0958 5.34531,-0.7222 9.94913,5.4199 11.9475,9.8116 -0.5132,4.9406 -5.86498,9.5741 -10.31468,11.2047 z m 25.35182,-25.6824 c -4.63787,-1.225 -10.01589,-6.2925 -10.50567,-11.2036 2.05905,-3.7952 5.81415,-9.1248 10.59277,-9.6887 4.2354,0.1927 6.80125,4.6138 9.46606,7.3026 3.20199,5.4142 -3.56268,9.9056 -7.20045,12.8916 l -1.03747,0.2963 -1.31524,0.4018 0,0 z"
       style="fill:#ffffff;fill-opacity:0.5" />
  </g>
</svg>
